<svg xmlns="http://www.w3.org/2000/svg" viewBox="0 0 1000 390" role="img" aria-labelledby="title desc"><title id="title">Tanishk Bhardwaj — computer vision, applied AI, software</title><desc id="desc">An abstract system of visual, audio, route and hardware signals converging into structured operational geometry.</desc><style>text{font-family:ui-monospace,SFMono-Regular,Consolas,monospace}.grid{stroke:#27313d;stroke-width:1}.trace{fill:none;stroke:#5b6b7e;stroke-width:1.5}.blue{fill:none;stroke:#65b7ff;stroke-width:2}.violet{fill:none;stroke:#a98cff;stroke-width:2}.muted{fill:#8290a2}.pulse{fill:#65b7ff;animation:move 7s linear infinite}.pulse:nth-of-type(2){animation-delay:-2s}.pulse:nth-of-type(3){animation-delay:-4s}@keyframes move{0%{opacity:0;transform:translateX(0)}15%{opacity:1}76%{opacity:1}100%{opacity:0;transform:translateX(330px)}}@media(prefers-color-scheme:light){.grid{stroke:#e0e5ec}.trace{stroke:#9aa6b5}.blue{stroke:#1677c8}.violet{stroke:#7655c7}.muted{fill:#596575}}@media(prefers-reduced-motion:reduce){.pulse{animation:none}}</style><rect width="1000" height="390" rx="8" fill="#0d1117"/><g class="grid" opacity=".72"><path d="M0 70h1000M0 130h1000M0 190h1000M0 250h1000M0 310h1000"/><path d="M60 0v390M140 0v390M220 0v390M300 0v390M380 0v390M460 0v390M540 0v390M620 0v390M700 0v390M780 0v390M860 0v390M940 0v390"/></g><g><text x="58" y="112" fill="#f0f4f8" font-size="33" font-weight="700">Tanishk</text><text x="58" y="151" fill="#f0f4f8" font-size="33" font-weight="700">Bhardwaj</text><path d="M60 181h188" stroke="#65b7ff"/><text x="60" y="213" class="muted" font-size="13">computer vision · applied AI · software</text><text x="60" y="330" class="muted" font-size="11">10ishk / engineering work</text></g><g class="trace"><path d="M350 70l74 55 58-28 77 82 70-32 88 76 82-44"/><path d="M350 310l74-55 58 28 77-82 70 32 88-76 82 44"/><path d="M424 125v130M482 97v213M559 179v-82M559 179v114M629 147v96M717 223v-50M799 179v82"/></g><g class="blue"><rect x="386" y="104" width="78" height="46"/><rect x="681" y="195" width="86" height="54"/><path d="M336 188h96l50-64M797 179h109l38-38M797 179h109l38 38"/></g><g class="violet"><path d="M510 56v48m-12-36 12-12 12 12M510 286v48m-12-36 12-12 12 12"/><circle cx="559" cy="179" r="17"/><path d="M551 179h16M559 171v16"/></g><g class="trace" opacity=".9"><path d="M350 238h30m-24 8h20m-14 8h10M874 95c14-26 28 26 42 0s28 26 42 0"/><path d="M870 267h34m-27 8h20m-13 8h7"/></g><g><circle class="pulse" cx="350" cy="70" r="3"/><circle class="pulse" cx="350" cy="310" r="3"/><circle class="pulse" cx="906" cy="141" r="3"/></g></svg>
