<svg xmlns="http://www.w3.org/2000/svg" viewBox="0 0 600 180"><rect width="600" height="180" rx="6" fill="#101722"/><path d="M0 132h600M0 150h600" stroke="#303846"/><g stroke="#65b7ff" fill="none" stroke-width="2"><path d="M98 120l18-35 28-12 35 14 12 33zM362 129l16-29 26-10 28 12 13 27z"/><path d="M104 54l-20 80m54-92l-18 100m50-89l-13 82M314 34l-10 112m45-124l-9 117m50-106l-6 105m49-88l-2 86" stroke="#4d647e" stroke-width="1"/></g><path d="M30 35c90 12 180-21 270 0s180-15 270 2" fill="none" stroke="#a98cff" opacity=".6"/><text x="30" y="162" fill="#9aa5b5" font-family="monospace" font-size="11">VISIBILITY / CONFIDENCE / DETECTION</text></svg>
