<svg xmlns="http://www.w3.org/2000/svg" viewBox="0 0 1000 260"><rect width="1000" height="260" rx="7" fill="#101722"/><path d="M28 22h944v216H28z" fill="none" stroke="#303b49"/><g stroke="#303b49"><path d="M50 76h900M50 130h900M50 184h900M160 40v176M320 40v176M480 40v176M640 40v176M800 40v176"/></g><g fill="none" stroke="#65b7ff" stroke-width="2"><path d="M74 184C130 80 185 188 248 102s105 8 157-44 104 34 153-9 93 50 142 3 79 35 144-16"/><path d="M74 184h786" stroke="#66778b"/></g><g fill="#101722" stroke="#a98cff" stroke-width="2"><circle cx="74" cy="184" r="7"/><circle cx="218" cy="141" r="7"/><circle cx="405" cy="58" r="7"/><circle cx="558" cy="49" r="7"/><circle cx="710" cy="52" r="7"/><circle cx="856" cy="120" r="7"/></g><g fill="#9baabd" font-family="monospace" font-size="12"><text x="52" y="54">TRIP / ROUTE / DEPLOYMENT</text><text x="52" y="218">query</text><text x="394" y="40">resolve</text><text x="688" y="38">confirm</text><text x="843" y="148">act</text></g><g fill="none" stroke="#65b7ff"><rect x="760" y="62" width="164" height="48" rx="3"/><path d="M775 80h55m-55 12h88m-55 12h74"/></g></svg>
